<svg width="38" height="38" viewBox="0 0 38 38" fill="none" xmlns="http://www.w3.org/2000/svg">
<rect width="38" height="38" fill="#F5F5F5"/>
<rect width="1440" height="514" transform="translate(-100 -184)" fill="#E4E9F6"/>
<path d="M0 19C0 8.50658 8.50658 0 19 0C29.4934 0 38 8.50658 38 19C38 29.4934 29.4934 38 19 38C8.50658 38 0 29.4934 0 19Z" fill="#1A1A1A"/>
<path d="M23.5 13H20.5C19.9477 13 19.5 13.4477 19.5 14V17H23.5C23.6137 16.9975 23.7216 17.0504 23.7892 17.1419C23.8568 17.2334 23.8758 17.352 23.84 17.46L23.1 19.66C23.0318 19.8619 22.8431 19.9984 22.63 20H19.5V27.5C19.5 27.7761 19.2761 28 19 28H16.5C16.2239 28 16 27.7761 16 27.5V20H14.5C14.2239 20 14 19.7761 14 19.5V17.5C14 17.2239 14.2239 17 14.5 17H16V14C16 11.7909 17.7909 10 20 10H23.5C23.7761 10 24 10.2239 24 10.5V12.5C24 12.7761 23.7761 13 23.5 13Z" fill="white"/>
</svg>
