<svg width="38" height="38" viewBox="0 0 38 38" fill="none" xmlns="http://www.w3.org/2000/svg">
<g id="Instagram_white">
<path id="Combined-Shape" fill-rule="evenodd" clip-rule="evenodd" d="M19 0C8.50658 0 0 8.50658 0 19C0 29.4934 8.50658 38 19 38C29.4934 38 38 29.4934 38 19C38 8.50658 29.4934 0 19 0ZM14.8228 8.92806C15.9037 8.87887 16.249 8.86683 19.0011 8.86683H18.9979C21.7509 8.86683 22.095 8.87887 23.1759 8.92806C24.2547 8.97746 24.9914 9.14825 25.6375 9.39884C26.3046 9.65745 26.8682 10.0037 27.4319 10.5674C27.9956 11.1306 28.3418 11.696 28.6015 12.3624C28.8506 13.0068 29.0216 13.7431 29.0723 14.8219C29.1208 15.9028 29.1335 16.2482 29.1335 19.0003C29.1335 21.7523 29.1208 22.0969 29.0723 23.1778C29.0216 24.2561 28.8506 24.9927 28.6015 25.6372C28.3418 26.3035 27.9956 26.8689 27.4319 27.4321C26.8689 27.9958 26.3044 28.3429 25.6381 28.6017C24.9933 28.8523 24.2561 29.0231 23.1773 29.0725C22.0964 29.1217 21.7521 29.1337 18.9998 29.1337C16.248 29.1337 15.9028 29.1217 14.8219 29.0725C13.7433 29.0231 13.0068 28.8523 12.362 28.6017C11.696 28.3429 11.1306 27.9958 10.5676 27.4321C10.0041 26.8689 9.65788 26.3035 9.39884 25.637C9.14846 24.9927 8.97767 24.2563 8.92806 23.1776C8.87908 22.0967 8.86683 21.7523 8.86683 19.0003C8.86683 16.2482 8.8795 15.9026 8.92785 14.8217C8.9764 13.7433 9.1474 13.0068 9.39863 12.3622C9.6583 11.696 10.0045 11.1306 10.5682 10.5674C11.1314 10.0039 11.6968 9.65766 12.3633 9.39884C13.0076 9.14825 13.744 8.97746 14.8228 8.92806Z" fill="#1A1A1A"/>
<path id="Combined-Shape_2" fill-rule="evenodd" clip-rule="evenodd" d="M18.0916 10.693C18.2681 10.6927 18.458 10.6928 18.6629 10.6929L19.0007 10.693C21.7063 10.693 22.027 10.7027 23.0954 10.7512C24.0834 10.7964 24.6196 10.9615 24.9769 11.1002C25.4497 11.2839 25.7869 11.5034 26.1414 11.8581C26.496 12.2128 26.7156 12.5505 26.8997 13.0234C27.0384 13.3802 27.2037 13.9164 27.2486 14.9045C27.2972 15.9727 27.3078 16.2936 27.3078 18.9979C27.3078 21.7023 27.2972 22.0232 27.2486 23.0914C27.2035 24.0794 27.0384 24.6157 26.8997 24.9724C26.716 25.4453 26.496 25.7821 26.1414 26.1365C25.7867 26.4912 25.45 26.7108 24.9769 26.8944C24.6201 27.0338 24.0834 27.1984 23.0954 27.2436C22.0272 27.2922 21.7063 27.3027 19.0007 27.3027C16.2948 27.3027 15.9741 27.2922 14.9059 27.2436C13.9179 27.198 13.3817 27.0329 13.0243 26.8942C12.5514 26.7105 12.2136 26.491 11.8589 26.1363C11.5042 25.7816 11.2847 25.4447 11.1006 24.9716C10.9619 24.6148 10.7966 24.0786 10.7516 23.0906C10.7031 22.0224 10.6934 21.7015 10.6934 18.9954C10.6934 16.2894 10.7031 15.9702 10.7516 14.9019C10.7968 13.9139 10.9619 13.3777 11.1006 13.0205C11.2843 12.5476 11.5042 12.2098 11.8589 11.8551C12.2136 11.5005 12.5514 11.2809 13.0243 11.0968C13.3815 10.9575 13.9179 10.7928 14.9059 10.7474C15.8407 10.7052 16.203 10.6925 18.0916 10.6904V10.693ZM24.4098 12.3755C23.7384 12.3755 23.1937 12.9196 23.1937 13.5911C23.1937 14.2625 23.7384 14.8071 24.4098 14.8071C25.0811 14.8071 25.6258 14.2625 25.6258 13.5911C25.6258 12.9198 25.0811 12.3751 24.4098 12.3751V12.3755ZM13.7966 19.0003C13.7966 16.1264 16.1265 13.7964 19.0003 13.7963C21.8742 13.7963 24.2036 16.1264 24.2036 19.0003C24.2036 21.8741 21.8744 24.2031 19.0005 24.2031C16.1266 24.2031 13.7966 21.8741 13.7966 19.0003Z" fill="#1A1A1A"/>
<path id="Shape" d="M19.0009 15.6221C20.8663 15.6221 22.3787 17.1343 22.3787 18.9999C22.3787 20.8653 20.8663 22.3777 19.0009 22.3777C17.1353 22.3777 15.623 20.8653 15.623 18.9999C15.623 17.1343 17.1353 15.6221 19.0009 15.6221Z" fill="#1A1A1A"/>
</g>
</svg>
