<svg width="38" height="38" viewBox="0 0 38 38" fill="none" xmlns="http://www.w3.org/2000/svg">
<rect width="38" height="38" fill="#F5F5F5"/>
<rect width="1440" height="514" transform="translate(-250 -184)" fill="#E4E9F6"/>
<path d="M0 19C0 8.50658 8.50658 0 19 0C29.4934 0 38 8.50658 38 19C38 29.4934 29.4934 38 19 38C8.50658 38 0 29.4934 0 19Z" fill="#1A1A1A"/>
<path fill-rule="evenodd" clip-rule="evenodd" d="M10.5 12C10.5 10.8954 11.3954 10 12.5 10C13.0304 10 13.5391 10.2107 13.9142 10.5858C14.2893 10.9609 14.5 11.4696 14.5 12C14.5 13.1046 13.6046 14 12.5 14C11.3954 14 10.5 13.1046 10.5 12ZM28 20.41C28.0345 18.2449 26.5574 16.3476 24.45 15.85C23.0377 15.5459 21.5657 15.9447 20.5 16.92V16.5C20.5 16.2239 20.2761 16 20 16H17.5C17.2239 16 17 16.2239 17 16.5V26.5C17 26.7761 17.2239 27 17.5 27H20C20.2761 27 20.5 26.7761 20.5 26.5V20.86C20.4753 19.8557 21.1753 18.9787 22.16 18.78C22.7464 18.6788 23.3473 18.8439 23.7997 19.2305C24.252 19.6171 24.5087 20.185 24.5 20.78V26.5C24.5 26.7761 24.7239 27 25 27H27.5C27.7761 27 28 26.7761 28 26.5V20.41ZM14.5 16.5V26.5C14.5 26.7761 14.2761 27 14 27H11.5C11.2239 27 11 26.7761 11 26.5V16.5C11 16.2239 11.2239 16 11.5 16H14C14.2761 16 14.5 16.2239 14.5 16.5Z" fill="white"/>
</svg>
